<?xml version="1.0" standalone="no"?>
<!DOCTYPE svg PUBLIC "-//W3C//DTD SVG 20010904//EN"
 "http://www.w3.org/TR/2001/REC-SVG-20010904/DTD/svg10.dtd">
<svg version="1.0" xmlns="http://www.w3.org/2000/svg"
 width="1280.000000pt" height="1005.000000pt" viewBox="0 0 1280.000000 1005.000000"
 preserveAspectRatio="xMidYMid meet">
<metadata>
Created by potrace 1.15, written by Peter Selinger 2001-2017
</metadata>
<g transform="translate(0.000000,1005.000000) scale(0.100000,-0.100000)"
fill="#000000" stroke="none">
<path d="M6534 10022 c-21 -16 -94 -86 -161 -155 -189 -197 -355 -461 -382
-611 -13 -71 -15 -254 -2 -241 4 6 14 33 21 60 18 71 90 219 141 292 105 148
440 493 478 493 42 0 154 -160 311 -440 51 -91 113 -196 138 -235 25 -38 55
-92 68 -120 14 -31 23 -42 23 -30 4 130 -333 873 -440 972 -56 51 -136 57
-195 15z"/>
<path d="M2791 9844 c-71 -80 -150 -273 -195 -475 -66 -299 -106 -821 -106
-1391 0 -382 21 -503 125 -728 70 -151 93 -209 121 -300 l23 -75 0 50 c1 59
-29 199 -64 305 -77 234 -85 442 -40 974 18 205 96 830 126 1004 26 153 71
333 101 401 l24 55 319 -311 c346 -335 473 -453 487 -453 11 0 10 2 -142 191
-64 79 -195 245 -292 369 -271 345 -347 420 -427 420 -21 0 -38 -10 -60 -36z"/>
<path d="M4434 9525 c-71 -42 -158 -189 -234 -395 -49 -133 -100 -337 -106
-425 l-5 -80 128 250 c159 309 241 445 269 445 13 0 51 -55 134 -195 72 -121
231 -357 237 -351 2 2 -19 60 -48 128 -29 67 -79 199 -111 293 -114 327 -129
355 -186 355 -21 0 -54 -11 -78 -25z"/>
<path d="M6541 9153 c-29 -108 -77 -411 -67 -420 10 -10 38 108 56 232 30 209
33 273 11 188z"/>
<path d="M5343 9155 c-32 -23 -84 -98 -158 -230 -37 -66 -97 -163 -135 -215
-118 -166 -198 -350 -239 -557 -27 -129 -28 -333 -2 -333 3 0 32 81 64 179 92
285 156 400 372 666 58 72 119 159 136 195 42 87 47 92 71 79 11 -6 157 -145
326 -310 168 -164 308 -297 310 -294 6 6 -136 221 -226 339 -145 194 -419 486
-455 486 -8 0 -21 2 -29 5 -7 3 -23 -2 -35 -10z"/>
<path d="M3062 8760 c0 -140 3 -302 7 -360 l7 -105 8 78 c11 99 1 572 -12 612
-8 22 -10 -39 -10 -225z"/>
<path d="M7522 8830 c-116 -27 -281 -84 -387 -135 -90 -43 -222 -132 -212
-142 3 -3 52 13 109 35 123 48 251 76 450 97 260 27 280 22 293 -72 14 -98 38
-199 89 -381 29 -103 68 -248 87 -322 l34 -135 3 135 c4 149 -11 350 -34 474
-8 45 -26 143 -39 218 -29 169 -45 204 -99 229 -54 24 -182 24 -294 -1z"/>
<path d="M4495 8806 c-12 -43 1 -348 19 -446 25 -133 37 -160 30 -65 -4 44
-14 184 -24 310 -11 159 -19 221 -25 201z"/>
<path d="M3641 8680 c-100 -48 -154 -98 -288 -265 -141 -174 -232 -314 -308
-470 -79 -161 -118 -272 -152 -434 -23 -110 -27 -150 -27 -316 -1 -168 2 -204
25 -310 26 -119 113 -340 145 -366 19 -16 19 -9 -16 132 -44 182 -53 271 -47
459 9 233 43 371 143 571 166 333 535 859 602 859 10 0 75 -42 143 -93 138
-103 471 -337 507 -356 13 -7 26 -11 28 -8 5 5 -226 225 -508 484 l-166 152
-81 -39z"/>
<path d="M8850 8681 c-233 -49 -460 -136 -608 -235 -76 -51 -175 -146 -151
-146 8 0 53 18 99 40 176 86 343 132 612 169 191 27 228 27 263 -1 l28 -22 -6
-140 c-31 -667 -40 -783 -73 -960 -13 -71 -24 -136 -24 -145 1 -25 55 106 104
252 53 158 75 264 120 599 59 436 59 472 -2 540 -78 86 -140 95 -362 49z"/>
<path d="M911 8498 c-13 -7 -33 -24 -43 -38 -94 -127 -83 -803 18 -1108 66
-202 240 -511 422 -751 87 -115 311 -356 312 -335 0 6 -30 56 -66 110 -260
385 -436 754 -496 1039 -23 111 -43 543 -33 723 9 166 14 170 157 132 191 -50
617 -243 968 -439 69 -38 127 -67 130 -64 16 16 -200 188 -396 316 -440 287
-870 470 -973 415z"/>
<path d="M6465 8476 c-105 -48 -207 -204 -286 -435 -44 -127 -58 -223 -69
-454 -10 -206 -6 -312 11 -301 16 9 48 137 69 269 28 175 63 301 115 412 70
149 201 323 243 323 46 0 277 -287 487 -605 100 -151 148 -230 263 -435 22
-37 32 -48 32 -34 0 28 -20 84 -30 84 -4 0 -10 24 -12 53 -7 73 -64 221 -173
442 -101 207 -151 286 -257 413 -144 172 -280 292 -330 292 -7 0 -36 -11 -63
-24z"/>
<path d="M5315 8308 c-35 -19 -105 -90 -170 -173 -173 -221 -274 -425 -347
-700 -18 -68 -38 -69 -73 -3 -38 73 -128 183 -177 219 -49 35 -77 36 -136 8
-75 -37 -137 -144 -205 -355 -74 -228 -91 -368 -92 -734 0 -242 3 -295 18
-350 19 -73 83 -210 98 -210 12 0 12 3 -8 52 -15 36 -18 74 -17 233 0 207 11
306 55 520 65 317 174 575 243 575 20 0 34 -15 74 -82 130 -217 178 -351 197
-551 7 -76 19 -92 75 -107 71 -19 142 30 156 108 4 20 -1 128 -11 241 -16 175
-17 222 -6 312 17 155 52 274 121 407 92 180 247 412 275 412 31 0 236 -265
410 -530 57 -86 111 -162 121 -170 16 -14 17 -13 10 14 -12 48 -128 282 -211
426 -107 186 -188 303 -265 383 -68 69 -92 79 -135 55z"/>
<path d="M7476 8193 c-17 -55 -36 -275 -36 -411 0 -321 37 -162 47 206 6 204
3 251 -11 205z"/>
<path d="M8759 8169 c-33 -41 -68 -106 -83 -155 -11 -35 -23 -154 -16 -154 4
0 15 28 25 63 10 34 41 109 67 166 27 58 47 109 45 114 -2 6 -19 -10 -38 -34z"/>
<path d="M9943 8163 c-68 -38 -543 -493 -515 -493 17 0 73 32 256 148 195 123
295 177 307 165 12 -12 30 -101 78 -384 66 -391 91 -671 91 -1034 0 -219 -10
-315 -56 -514 -19 -84 -32 -156 -29 -159 2 -3 19 25 36 63 135 297 209 782
180 1175 -35 471 -100 874 -157 971 -41 70 -128 98 -191 62z"/>
<path d="M3771 8015 c-1 -189 39 -416 86 -484 23 -32 25 -33 19 -10 -3 15 -24
143 -46 285 -54 344 -58 358 -59 209z"/>
<path d="M6603 7740 c9 -155 69 -463 99 -510 12 -20 2 127 -17 240 -20 116
-74 363 -82 370 -3 3 -3 -42 0 -100z"/>
<path d="M8227 7810 c-47 -23 -143 -101 -262 -211 -49 -46 -128 -116 -175
-155 -47 -39 -111 -99 -143 -133 -60 -66 -130 -162 -122 -169 2 -3 22 11 43
30 53 48 109 85 253 169 152 88 280 174 345 230 85 73 131 80 183 29 52 -52
84 -206 102 -487 15 -247 6 -395 -36 -558 -37 -144 -129 -434 -152 -478 -24
-47 -4 -45 34 3 79 98 330 317 432 377 66 38 142 63 163 52 27 -15 41 -110 35
-234 -4 -60 -25 -242 -47 -403 -46 -336 -42 -302 -31 -302 19 0 124 296 165
468 53 220 54 358 5 518 -21 69 -42 93 -90 100 -91 14 -190 -49 -397 -250 -84
-81 -156 -146 -158 -143 -3 3 26 72 65 155 139 295 165 413 166 757 0 193 -3
257 -18 325 -35 166 -107 266 -223 310 -67 25 -88 25 -137 0z"/>
<path d="M1446 7601 c63 -157 141 -310 213 -419 103 -153 99 -127 -14 98 -66
131 -220 408 -236 424 -5 6 12 -41 37 -103z"/>
<path d="M3523 7643 c-105 -116 -275 -595 -304 -860 -13 -119 -6 -479 11 -598
26 -178 138 -416 280 -595 24 -30 45 -49 47 -43 3 7 -11 47 -30 90 -19 43 -56
143 -82 223 l-48 145 -5 181 c-8 319 25 595 113 949 59 236 93 345 108 345 33
0 137 -142 260 -352 83 -141 95 -139 56 8 -68 262 -252 544 -355 544 -9 0 -32
-17 -51 -37z"/>
<path d="M5374 7485 c2 -88 9 -134 36 -230 19 -66 38 -122 42 -123 5 -2 19
-25 32 -51 13 -25 34 -57 45 -71 15 -17 9 2 -18 56 -48 98 -63 150 -96 324
-40 210 -45 222 -41 95z"/>
<path d="M9774 7463 c-26 -54 -59 -129 -75 -167 -29 -70 -29 -70 -5 -47 37 35
86 135 112 227 12 46 21 84 18 84 -3 0 -25 -44 -50 -97z"/>
<path d="M8173 7227 c-58 -85 -292 -591 -279 -604 2 -2 39 48 82 112 53 80 95
160 135 256 85 203 114 312 62 236z"/>
<path d="M9460 7084 c-75 -20 -201 -77 -478 -215 l-237 -118 60 5 c102 9 206
33 395 89 224 68 337 91 376 78 39 -13 52 -43 69 -160 30 -205 39 -394 39
-830 1 -243 4 -439 7 -435 12 12 78 303 98 429 37 229 45 387 33 633 -21 408
-37 475 -122 518 -53 26 -154 29 -240 6z"/>
<path d="M1894 7011 c-37 -23 -59 -72 -84 -196 -33 -159 -43 -322 -37 -585 7
-261 19 -394 42 -475 16 -55 131 -263 203 -365 54 -77 261 -291 387 -399 235
-203 483 -358 615 -386 l35 -7 -20 22 c-11 12 -46 40 -79 62 -140 96 -450 394
-595 571 -148 182 -312 467 -345 599 -31 122 -41 263 -41 573 0 228 3 322 13
354 13 42 14 43 48 38 43 -7 210 -86 358 -170 149 -83 261 -190 365 -347 50
-76 77 -109 79 -97 6 28 -50 136 -115 222 -134 176 -203 238 -433 393 -74 49
-170 118 -214 151 -88 68 -125 77 -182 42z"/>
<path d="M6620 6975 c0 -11 11 -75 34 -203 47 -258 63 -466 50 -632 l-7 -85
-63 -3 -63 -2 -6 37 c-10 64 -39 127 -63 138 -18 8 -22 18 -22 55 0 113 -51
343 -96 433 -23 46 -133 217 -139 217 -1 0 26 -57 61 -127 52 -105 69 -152 94
-259 35 -154 52 -267 44 -288 -4 -11 -19 -16 -43 -16 -44 0 -75 -24 -90 -70
-6 -19 -21 -46 -32 -60 -21 -24 -21 -24 -36 -5 -8 11 -30 50 -49 87 -19 37
-47 77 -63 89 -24 18 -29 30 -35 81 -17 164 -131 398 -242 498 -26 23 -26 22
5 -20 66 -90 121 -178 139 -226 24 -61 51 -183 54 -249 l3 -50 -36 3 c-45 4
-101 -28 -134 -76 l-24 -35 -36 76 c-21 41 -66 113 -100 158 -70 93 -234 270
-235 254 0 -5 33 -48 73 -94 116 -134 166 -208 233 -348 76 -158 87 -235 24
-168 -41 43 -136 59 -178 29 -22 -15 -25 -14 -76 34 -55 52 -142 101 -234 133
-61 21 -216 37 -192 20 8 -6 31 -11 50 -11 88 -1 269 -88 364 -175 37 -34 38
-35 22 -60 -19 -28 -32 -135 -21 -162 4 -10 10 -26 12 -36 2 -11 10 -28 18
-40 27 -38 19 -47 -41 -47 -49 0 -61 4 -95 33 -65 56 -233 108 -339 106 -35
-1 41 -22 107 -29 81 -10 136 -34 194 -88 l41 -36 -41 -36 c-60 -52 -64 -97
-17 -168 20 -30 36 -58 36 -63 0 -5 -13 -9 -30 -9 -61 0 -28 -18 43 -22 39 -3
85 -11 100 -17 l28 -11 -17 -32 c-11 -21 -18 -56 -18 -95 0 -76 17 -98 112
-144 55 -27 71 -31 115 -25 29 3 81 16 116 28 62 22 63 22 77 3 8 -11 12 -26
8 -35 -3 -8 -13 -42 -21 -75 -13 -50 -14 -69 -4 -117 7 -32 15 -58 19 -58 4 0
7 44 7 99 0 122 11 142 59 108 45 -32 107 -29 180 11 l58 31 60 -125 c33 -69
61 -124 63 -122 9 9 -27 118 -60 182 -38 74 -42 95 -23 114 19 19 28 14 28
-14 0 -16 13 -39 33 -59 42 -42 102 -53 164 -31 l43 15 16 -32 c21 -39 113
-177 119 -177 8 0 -36 94 -71 152 -20 32 -45 63 -56 69 -21 11 -21 12 -2 22
26 14 34 27 34 60 0 38 12 34 56 -20 55 -68 84 -91 127 -105 52 -16 111 -1
115 30 5 30 20 28 34 -5 7 -16 32 -54 56 -85 24 -32 54 -77 67 -100 14 -24 25
-37 25 -30 0 21 -60 133 -106 199 -40 56 -44 66 -38 101 10 66 15 68 79 44 31
-12 67 -22 79 -22 26 0 42 -14 139 -119 37 -40 67 -71 67 -67 0 8 -67 103
-102 144 l-29 33 51 46 c27 24 50 53 50 63 0 11 4 21 8 24 5 3 72 -8 150 -23
78 -15 142 -26 142 -24 0 13 -104 46 -197 62 -88 15 -107 21 -105 34 1 9 -6
34 -18 56 -20 41 -50 62 -103 75 l-28 7 24 29 c14 16 27 34 29 39 8 23 211 46
413 45 115 0 181 3 155 7 -81 13 -307 9 -415 -7 -58 -8 -111 -14 -117 -12 -6
2 -12 28 -12 59 -1 55 -5 63 -59 121 -33 36 -35 34 82 127 99 78 235 170 336
228 89 50 213 133 199 133 -20 0 -137 -50 -221 -95 -99 -52 -250 -158 -370
-257 -68 -56 -88 -68 -118 -68 -42 0 -94 -20 -114 -43 -22 -27 -31 -20 -31 27
0 39 9 55 96 172 161 215 176 229 335 326 190 115 199 121 134 103 -89 -26
-208 -93 -280 -158 -66 -59 -191 -217 -238 -298 -12 -22 -26 -39 -32 -39 -5 0
-18 26 -28 58 l-18 57 36 138 c20 76 45 197 56 270 23 156 37 427 22 427 -6 0
-13 -43 -16 -102 -12 -217 -49 -474 -90 -618 -26 -92 -36 -108 -53 -85 -13 17
-36 21 -69 10 -21 -6 -21 -4 -17 147 3 107 -1 189 -13 273 -17 128 -90 444
-106 460 -6 6 -9 6 -9 0z"/>
<path d="M4500 6785 c0 -30 28 -199 46 -274 17 -71 89 -231 103 -231 5 0 -4
41 -21 92 -16 51 -48 162 -70 248 -41 157 -57 204 -58 165z"/>
<path d="M10880 6746 c-111 -57 -409 -224 -448 -252 l-37 -26 35 7 c19 4 114
29 210 55 96 27 192 51 213 55 l37 7 0 -36 c0 -74 -106 -526 -177 -749 -39
-127 -78 -201 -161 -314 -151 -203 -357 -349 -591 -419 -50 -15 -91 -31 -91
-35 0 -28 169 -10 295 32 243 81 500 277 604 461 137 244 264 627 302 909 15
106 7 254 -14 295 -29 56 -83 59 -177 10z"/>
<path d="M3685 6635 c9 -105 58 -359 90 -466 29 -97 94 -270 106 -284 16 -17
10 10 -30 136 -51 160 -62 203 -116 465 -25 120 -48 220 -51 223 -3 4 -3 -30
1 -74z"/>
<path d="M131 6690 c-74 -18 -131 -95 -131 -179 0 -56 29 -179 66 -281 76
-213 297 -579 482 -800 183 -219 498 -496 693 -611 183 -107 476 -221 731
-283 217 -54 311 -66 553 -71 239 -5 239 -5 -15 44 -558 107 -1094 364 -1465
699 -221 200 -512 551 -657 790 -81 135 -173 371 -166 428 5 42 45 58 143 57
134 -2 186 -16 560 -151 362 -130 675 -235 681 -229 10 10 -207 126 -541 292
-371 184 -559 269 -642 290 -61 16 -233 19 -292 5z"/>
<path d="M9367 6509 c-26 -63 -58 -149 -72 -190 l-25 -74 26 30 c39 47 82 143
105 233 32 128 18 128 -34 1z"/>
<path d="M2303 6260 c16 -49 112 -281 139 -333 36 -73 189 -333 213 -362 8
-11 -63 138 -159 330 -160 319 -207 410 -193 365z"/>
<path d="M10545 6142 c-33 -41 -79 -103 -101 -138 -52 -78 -86 -123 -149 -199
-27 -33 -65 -80 -84 -105 l-34 -45 45 45 c78 76 206 239 300 378 49 74 88 135
86 137 -2 1 -30 -31 -63 -73z"/>
<path d="M8629 6049 c-31 -64 -81 -153 -146 -262 -19 -32 -33 -60 -31 -63 11
-10 99 99 131 162 39 77 90 214 83 221 -3 3 -19 -24 -37 -58z"/>
<path d="M9417 6018 c-67 -65 -197 -264 -378 -581 -140 -244 -144 -269 -23
-144 74 76 147 159 278 320 44 53 84 97 89 97 16 0 0 -223 -27 -375 -69 -384
-148 -568 -377 -876 -44 -58 -79 -112 -79 -119 0 -9 12 -10 46 -5 61 9 74 14
74 31 0 8 7 14 15 14 57 0 256 263 369 488 163 325 243 943 146 1133 -31 60
-81 66 -133 17z"/>
<path d="M7680 5966 c-157 -49 -295 -108 -404 -172 -86 -50 -97 -70 -17 -29
98 49 347 154 456 191 105 35 146 55 115 54 -8 -1 -76 -20 -150 -44z"/>
<path d="M4665 5895 c-193 -57 -553 -189 -683 -250 -190 -90 -215 -140 -147
-298 42 -97 45 -121 13 -111 -47 14 -226 110 -311 167 -49 33 -153 121 -234
198 -215 206 -226 214 -289 214 -73 0 -96 -24 -134 -141 -94 -296 -91 -497 12
-703 61 -121 159 -221 403 -406 261 -199 343 -251 560 -360 185 -94 272 -126
385 -145 85 -14 520 -24 500 -12 -8 5 -91 24 -184 42 -362 68 -478 123 -841
397 -361 273 -619 502 -669 594 -22 40 -30 70 -34 125 -7 118 30 314 59 314
16 0 87 -38 249 -135 309 -184 476 -261 689 -321 213 -60 398 -132 720 -278
68 -31 125 -55 127 -53 5 4 -225 177 -307 231 -31 21 -140 72 -242 115 -103
43 -209 93 -236 110 -116 75 -191 208 -148 264 17 23 99 57 281 116 258 84
380 113 476 115 109 1 124 -8 232 -161 95 -133 205 -253 349 -379 195 -171
461 -375 474 -363 3 3 -79 97 -181 210 -366 401 -461 528 -540 716 -54 129
-79 164 -137 192 -56 27 -112 26 -212 -4z"/>
<path d="M980 5746 c23 -29 148 -128 230 -183 184 -122 461 -276 487 -271 12
2 -11 19 -62 47 -44 24 -132 79 -195 121 -118 79 -364 237 -435 280 -31 19
-37 20 -25 6z"/>
<path d="M8585 5422 c-82 -44 -231 -145 -359 -245 -235 -184 -407 -279 -711
-392 -191 -71 -321 -133 -351 -167 -19 -20 -19 -20 11 -15 17 4 95 13 175 22
240 26 469 90 637 180 100 53 496 313 576 378 50 42 58 45 65 30 12 -30 4
-349 -12 -503 -9 -80 -16 -154 -15 -165 0 -29 77 126 110 222 44 127 61 272
57 478 -3 172 -4 177 -27 196 -34 28 -78 23 -156 -19z"/>
<path d="M11620 5383 c-124 -5 -742 -63 -754 -71 -17 -10 40 -20 135 -21 47 0
110 -5 140 -11 85 -15 391 -38 814 -60 499 -26 587 -37 602 -77 9 -24 -37
-106 -111 -199 -130 -162 -367 -367 -646 -558 -245 -168 -332 -236 -303 -236
50 0 335 126 528 234 358 200 587 396 706 603 48 85 69 154 69 230 0 82 -11
98 -89 138 l-71 35 -472 -2 c-260 -1 -507 -3 -548 -5z"/>
<path d="M10548 5030 c-31 -5 -117 -23 -190 -40 -73 -18 -157 -34 -185 -37
-29 -3 -53 -9 -53 -13 0 -12 74 -19 317 -30 261 -13 303 -20 303 -53 0 -49
-139 -219 -378 -461 -207 -209 -316 -299 -454 -374 -160 -87 -346 -174 -463
-217 -55 -20 -131 -48 -170 -63 l-70 -27 39 -3 c50 -4 307 33 411 59 95 24
272 92 376 144 152 77 328 211 456 349 148 159 338 406 393 511 54 102 36 196
-45 238 -46 23 -190 32 -287 17z"/>
<path d="M11764 4835 c-40 -18 -103 -51 -140 -73 -38 -22 -176 -88 -307 -147
-131 -59 -236 -110 -233 -112 7 -7 301 94 383 132 70 32 383 221 383 231 0 8
-16 2 -86 -31z"/>
<path d="M9695 4718 c-11 -6 -53 -40 -94 -76 -203 -176 -413 -298 -597 -347
-63 -17 -329 -34 -534 -35 -153 0 -150 -14 6 -35 191 -24 404 -29 551 -11 113
13 172 24 341 63 59 14 -9 -86 -113 -165 -170 -128 -656 -316 -1097 -423 -329
-79 -328 -79 -168 -73 281 11 676 63 892 118 264 67 550 235 741 435 133 139
225 307 235 428 5 61 4 63 -31 98 -28 28 -43 35 -73 35 -22 0 -48 -6 -59 -12z"/>
<path d="M6395 4706 c-33 -8 -134 -34 -225 -59 -91 -25 -253 -65 -360 -88
-397 -84 -496 -128 -516 -228 -10 -50 37 -133 105 -187 113 -90 319 -167 481
-180 61 -5 64 -4 40 10 -14 8 -61 27 -105 42 -200 68 -310 130 -367 208 l-29
41 25 22 c47 40 182 69 621 133 217 32 351 58 420 83 40 14 41 13 155 -41 303
-143 627 -251 882 -292 41 -7 81 -16 88 -20 26 -16 -3 -64 -92 -153 -50 -50
-86 -93 -80 -95 7 -2 44 14 83 35 134 71 225 189 200 256 -14 37 -58 55 -278
116 -100 28 -210 60 -245 71 -108 36 -258 113 -388 200 -69 46 -149 94 -179
108 -65 30 -154 37 -236 18z"/>
<path d="M3055 4370 c-218 -57 -750 -314 -1295 -626 -252 -144 -328 -210 -365
-313 -50 -143 6 -211 290 -351 334 -164 1013 -406 1465 -521 218 -56 380 -67
788 -51 383 15 649 49 1056 137 304 66 303 74 -6 50 -613 -48 -1239 -40 -1598
21 -318 54 -579 134 -1100 337 -162 63 -340 132 -395 152 -187 70 -284 131
-271 173 9 28 122 115 304 234 86 57 278 183 426 281 308 205 516 332 663 406
56 28 117 60 135 71 l33 20 -30 -1 c-16 0 -62 -8 -100 -19z"/>
<path d="M10740 4168 c3 -3 113 -43 245 -88 275 -94 410 -147 556 -220 167
-84 349 -204 349 -230 0 -19 -49 -54 -127 -92 -104 -49 -293 -96 -548 -137
-110 -18 -216 -36 -235 -41 -22 -6 94 -8 305 -6 291 3 357 6 455 24 273 50
410 122 440 231 15 57 5 85 -51 135 -162 146 -537 289 -1014 386 -131 27 -390
53 -375 38z"/>
<path d="M10320 3738 c17 -8 129 -13 370 -14 248 -2 335 0 310 7 -53 16 -712
22 -680 7z"/>
<path d="M5269 3626 c-69 -25 -115 -61 -279 -221 -186 -182 -220 -210 -305
-253 -103 -52 -158 -64 -315 -69 -112 -4 -161 -1 -215 11 -83 20 -240 94 -274
130 l-24 25 64 67 c35 36 92 89 126 117 35 28 62 52 60 53 -9 9 -146 -30 -184
-52 -70 -41 -161 -137 -168 -178 -17 -88 125 -199 355 -277 89 -31 105 -33
266 -37 160 -4 179 -2 288 23 140 34 174 53 353 197 190 154 213 162 213 73 0
-52 39 -162 80 -225 79 -124 419 -343 648 -420 174 -58 227 -63 537 -57 308 6
439 18 560 47 170 42 327 147 380 254 26 54 45 168 45 279 0 31 3 57 7 57 4 0
95 -18 203 -40 362 -73 603 -78 960 -19 283 47 424 95 474 162 18 24 18 29 6
53 -16 29 -64 56 -130 72 -63 15 -266 34 -320 30 -44 -3 -41 -4 81 -46 184
-62 196 -85 63 -119 -100 -25 -645 -25 -851 0 -211 26 -272 45 -460 142 -193
99 -216 104 -270 50 l-35 -35 7 -218 c7 -197 6 -223 -10 -256 -26 -54 -104
-119 -167 -140 -116 -37 -404 -74 -653 -83 -155 -5 -178 -4 -260 17 -210 52
-403 127 -519 200 -83 53 -163 139 -172 186 -13 71 0 146 44 240 66 143 55
205 -43 250 -56 26 -112 30 -166 10z"/>
<path d="M6347 3597 c-14 -38 -29 -300 -24 -422 11 -245 24 -198 32 116 7 290
6 342 -8 306z"/>
<path d="M10020 3583 c0 -10 17 -21 350 -226 268 -165 463 -294 585 -386 186
-140 480 -410 473 -432 -23 -68 -945 -94 -1323 -38 -171 26 -547 129 -780 216
-66 24 -180 73 -252 108 -73 35 -133 60 -133 55 0 -16 293 -196 441 -270 240
-121 619 -242 899 -286 218 -34 1024 -30 1250 7 131 21 211 77 225 159 10 56
-29 134 -98 196 -157 143 -534 394 -795 531 -79 41 -107 51 -117 43 -10 -8
-19 -5 -39 15 -31 31 -334 182 -507 252 -131 53 -179 68 -179 56z"/>
<path d="M3640 3419 c-30 -4 -246 -13 -480 -18 -383 -10 -667 -24 -677 -35 -7
-6 105 -15 277 -21 322 -11 886 33 960 76 19 11 -1 10 -80 -2z"/>
<path d="M9570 3141 c61 -49 306 -164 525 -246 468 -175 448 -151 -50 61 -393
168 -449 191 -475 198 l-25 7 25 -20z"/>
<path d="M8990 2673 c0 -4 34 -50 75 -101 200 -248 379 -538 468 -757 137
-335 257 -858 209 -906 -8 -9 -41 -13 -95 -12 -68 0 -104 8 -212 43 -420 137
-1155 478 -1471 683 -55 35 -180 110 -279 167 -218 125 -416 250 -576 365
-166 120 -209 148 -215 142 -8 -7 273 -285 395 -389 136 -118 303 -241 516
-382 465 -308 675 -421 1075 -579 564 -224 726 -277 838 -277 115 0 250 60
277 122 15 36 7 79 -80 417 -70 269 -109 388 -183 550 -153 334 -292 523 -568
776 -117 107 -174 152 -174 138z"/>
<path d="M8196 2551 c43 -77 447 -479 719 -715 44 -39 118 -106 164 -150 46
-45 78 -72 73 -60 -15 29 -591 597 -911 899 -55 52 -61 55 -45 26z"/>
<path d="M4317 2293 c-137 -228 -241 -721 -254 -1199 -8 -326 18 -606 79 -828
29 -104 95 -237 128 -254 40 -21 205 -8 340 27 362 94 934 327 1205 491 103
62 487 344 625 458 145 120 301 277 348 350 24 37 48 93 61 139 20 77 42 256
40 343 0 39 -5 29 -34 -78 -85 -304 -187 -415 -677 -736 -326 -212 -509 -314
-797 -441 -354 -156 -624 -254 -831 -301 -169 -38 -178 -36 -215 73 -82 244
-125 507 -132 819 -10 397 35 772 128 1086 17 55 28 102 26 105 -3 2 -21 -22
-40 -54z"/>
<path d="M6035 2062 c-93 -45 -188 -106 -335 -215 -268 -200 -439 -406 -530
-637 -12 -30 -19 -53 -17 -50 3 3 36 48 72 100 213 300 448 528 784 759 57 39
100 71 95 71 -5 0 -36 -13 -69 -28z"/>
</g>
</svg>
